#!OML:ASF F:\VICON\USERDATA\INSTALL\rory3\rory3.ASF
:FULLY-SPECIFIED
:DEGREES
16
root 0.598817 15.5286 -41.5443 26.4432 4.33193 -1.98686
lowerback -2.91884 -2.54848 2.30132
upperback -3.72137 -3.39751 2.77394
thorax -2.15541 -1.72285 1.52924
lowerneck -15.3466 -2.50744 -7.97033
upperneck 5.16083 -2.24736 4.9918
head 4.15999 -0.986493 2.65107
rclavicle -3.62285e-014 5.76476e-015
rhumerus -43.8381 3.02353 -84.741
rradius 46.4718
rwrist 3.91055
rhand -27.5846 -48.646
rfingers 7.12502
rthumb -0.984727 -78.6235
lclavicle -3.62285e-014 5.76476e-015
lhumerus -30.6466 -18.1932 93.3819
lradius 58.9974
lwrist 21.4729
lhand -34.6166 -41.9552
lfingers 7.12502
lthumb -7.77471 -12.1181
rfemur -63.4002 0.616238 28.8795
rtibia 78.2994
rfoot -22.766 -7.22053
rtoes -18.5784
lfemur -22.7539 4.41702 -18.9358
ltibia 55.5016
lfoot -25.5347 3.53535
ltoes -31.5886
17
root 0.579122 15.4974 -41.3665 26.5141 4.29605 -2.48096
lowerback -2.80947 -2.35318 2.97765
upperback -4.02312 -3.12736 2.78335
thorax -2.56896 -1.60759 1.18179
lowerneck -14.7665 -2.50685 -7.88557
upperneck 5.12409 -2.29751 4.87466
head 4.05772 -1.02295 2.59932
rclavicle -2.83765e-014 4.37326e-015
rhumerus -43.819 3.54881 -85.1902
rradius 46.7398
rwrist 3.64986
rhand -27.4321 -49.1131
rfingers 7.12502
rthumb -0.837429 -79.0912
lclavicle -2.83765e-014 4.37326e-015
lhumerus -31.9438 -17.1279 93.1616
lradius 58.7402
lwrist 21.8331
lhand -34.7872 -41.8464
lfingers 7.12502
lthumb -7.93935 -12.0155
rfemur -62.095 1.13192 29.4567
rtibia 77.652
rfoot -23.6141 -8.84398
rtoes -21.8922
lfemur -24.1355 5.05815 -18.0912
ltibia 58.5289
lfoot -22.382 2.3879
ltoes -32.451
18
root 0.558548 15.4802 -41.1811 26.9016 4.39164 -2.94922
lowerback -3.99388 -2.18343 3.47251
upperback -3.82979 -2.97539 2.93367
thorax -1.72476 -1.53369 1.00207
lowerneck -14.1579 -2.51038 -7.85128
upperneck 4.42156 -2.32798 4.70339
head 3.74438 -1.0477 2.54107
rclavicle -5.96354e-016 7.55382e-015
rhumerus -43.1295 4.30451 -85.5574
rradius 47.0791
rwrist 2.33773
rhand -26.491 -50.599
rfingers 7.12502
rthumb 0.0714923 -80.5787
lclavicle -5.96354e-016 7.55382e-015
lhumerus -32.4405 -15.8697 92.7411
lradius 58.4803
lwrist 22.1523
lhand -34.2599 -40.6508
lfingers 7.12502
lthumb -7.43046 -10.8012
rfemur -61.2857 1.59109 30.0107
rtibia 77.0946
rfoot -24.6913 -9.67535
rtoes -22.0283
lfemur -26.1171 5.59625 -17.2507
ltibia 61.8399
lfoot -19.2406 1.32982
ltoes -31.0921
19
root 0.539782 15.4517 -40.9992 27.3146 4.64028 -3.30782
lowerback -3.64283 -2.03353 4.15696
upperback -4.03781 -2.7581 3.00209
thorax -2.16663 -1.44612 0.718738
lowerneck -16.0909 -2.69278 -7.80543
upperneck 5.61026 -2.43 4.50587
head 4.41916 -1.0977 2.45282
rclavicle 3.27995e-015 -4.17448e-015
rhumerus -42.5391 4.81524 -85.7495
rradius 47.631
rwrist 1.51649
rhand -28.4452 -49.5749
rfingers 7.12502
rthumb -1.81592 -79.5469
lclavicle 3.27995e-015 -4.17448e-015
lhumerus -33.0512 -14.8488 92.3551
lradius 57.8317
lwrist 22.5461
lhand -33.1933 -39.1248
lfingers 7.12502
lthumb -6.40081 -9.24149
rfemur -60.4365 1.92182 30.458
rtibia 76.4379
rfoot -25.813 -10.2304
rtoes -20.8787
lfemur -28.4679 5.63207 -16.4115
ltibia 65.3181
lfoot -16.0109 -0.799876
ltoes -25.9707
20
root 0.527496 15.4201 -40.8262 27.9726 4.44124 -3.80099
lowerback -4.21019 -1.74693 4.72282
upperback -4.42723 -2.4044 3.11808
thorax -2.2685 -1.28733 0.51943
lowerneck -15.136 -2.67722 -7.91836
upperneck 5.49091 -2.44498 4.33676
head 4.23134 -1.1274 2.42189
rclavicle -3.03644e-014 2.42517e-014
rhumerus -42.4926 5.48857 -85.8608
rradius 48.5262
rwrist 1.43028
rhand -27.5638 -51.4212
rfingers 7.12502
rthumb -0.964651 -81.3987
lclavicle -3.03644e-014 2.42517e-014
lhumerus -34.8596 -13.699 92.2376
lradius 58.0492
lwrist 22.342
lhand -33.8715 -38.5783
lfingers 7.12502
lthumb -7.05551 -8.71588
rfemur -59.97 2.58015 30.8638
rtibia 75.785
rfoot -26.2912 -11.1485
rtoes -22.1521
lfemur -31.3519 5.89737 -15.7645
ltibia 68.9061
lfoot -12.0651 -2.80345
ltoes -17.0574
21
root 0.498172 15.4212 -40.6137 27.3018 5.14676 -3.62534
lowerback -3.35354 -1.82761 4.84513
upperback -4.27149 -2.45971 3.10609
thorax -2.59444 -1.3208 0.466555
lowerneck -15.9557 -2.92447 -7.83163
upperneck 6.05693 -2.71178 4.10828
head 4.54826 -1.26815 2.3076
rclavicle 1.2424e-014 -7.55382e-015
rhumerus -41.888 5.85476 -85.908
rradius 49.5288
rwrist 1.6959
rhand -28.3233 -50.4942
rfingers 7.12502
rthumb -1.69816 -80.4671
lclavicle 1.2424e-014 -7.55382e-015
lhumerus -35.7433 -12.9902 91.8849
lradius 57.5313
lwrist 22.0119
lhand -35.0942 -38.9263
lfingers 7.12502
lthumb -8.23567 -9.1068
rfemur -57.7066 2.19291 31.1212
rtibia 75.1559
rfoot -27.4609 -12.1126
rtoes -23.1906
lfemur -32.5948 5.28066 -15.0665
ltibia 72.4017
lfoot -9.02421 -3.04644
ltoes -13.2663
22
root 0.448089 15.454 -40.3539 25.0593 7.90162 -2.62424
lowerback -1.71262 -2.733 4.50052
upperback -4.05813 -3.55966 3.17684
thorax -3.29932 -1.86522 0.806674
lowerneck -14.1863 -2.94502 -7.78153
upperneck 5.57588 -2.86339 3.87557
head 4.12329 -1.36826 2.22825
rclavicle 2.8625e-014 -3.10104e-014
rhumerus -42.186 6.22269 -85.8092
rradius 50.6584
rwrist 2.83398
rhand -26.5491 -52.31
rfingers 7.12502
rthumb 0.0154334 -82.2897
lclavicle 2.8625e-014 -3.10104e-014
lhumerus -37.5731 -12.3995 91.7598
lradius 56.7204
lwrist 21.5142
lhand -36.839 -38.9023
lfingers 7.12502
lthumb -9.91932 -9.15597
rfemur -53.3225 -0.102921 31.5177
rtibia 74.5161
rfoot -29.6741 -12.9341
rtoes -22.1611
lfemur -32.0563 2.65332 -13.9456
ltibia 75.6747
lfoot -6.86386 -2.92304
ltoes 5.71085
23
root 0.44919 15.3922 -40.2266 25.8636 6.62701 -3.41623
lowerback -2.22679 -2.02924 5.23042
upperback -3.46068 -2.68719 3.18091
thorax -2.40825 -1.42897 0.35056
lowerneck -16.8633 -3.22243 -7.78242
upperneck 5.927 -3.01288 3.81349
head 4.66224 -1.42338 2.17255
rclavicle 3.56818e-014 -1.66979e-014
rhumerus -39.3167 6.49036 -85.4056
rradius 51.4601
rwrist 4.43637
rhand -28.2626 -49.9888
rfingers 7.12502
rthumb -1.63955 -79.9623
lclavicle 3.56818e-014 -1.66979e-014
lhumerus -36.4636 -11.9208 90.9302
lradius 55.5667
lwrist 21.0241
lhand -38.7078 -38.9972
lfingers 7.12502
lthumb -11.7219 -9.34518
rfemur -53.7212 1.30059 31.8309
rtibia 74.4262
rfoot -29.6443 -12.8379
rtoes -22.5565
lfemur -35.7171 3.92104 -13.6972
ltibia 79.9182
lfoot -7.13972 -1.83724
ltoes 9.47971
24
root 0.454828 15.3105 -40.1121 27.1486 5.0858 -4.59776
lowerback -2.74592 -1.25831 6.18374
upperback -3.86564 -1.68236 3.30941
thorax -2.53421 -0.956851 -0.0531334
lowerneck -16.4121 -3.20367 -8.02418
upperneck 5.45772 -2.96699 3.80425
head 4.44556 -1.40617 2.21697
rclavicle 1.66979e-014 -1.03368e-014
rhumerus -38.2941 7.42457 -85.2956
rradius 52.1774
rwrist 5.72417
rhand -28.5253 -47.9302
rfingers 7.12502
rthumb -1.89323 -77.9016
lclavicle 1.66979e-014 -1.03368e-014
lhumerus -37.4004 -11.003 90.5165
lradius 54.688
lwrist 20.1687
lhand -40.172 -39.0191
lfingers 7.12502
lthumb -13.1336 -9.45268
rfemur -54.8462 3.13875 32.359
rtibia 74.5407
rfoot -29.211 -12.9047
rtoes -23.5998
lfemur -40.3092 5.78078 -13.3907
ltibia 84.5184
lfoot -7.55699 0.0103455
ltoes -5.05251
25
root 0.436988 15.2796 -39.9292 26.4881 5.67589 -4.89712
lowerback -2.22277 -1.19851 6.82414
upperback -3.60459 -1.57279 3.3274
thorax -2.57369 -0.914021 -0.380631
lowerneck -15.8436 -3.3167 -7.79454
upperneck 4.89737 -3.18757 3.60928
head 4.18789 -1.52032 2.10673
rclavicle 1.35174e-014 -1.23246e-014
rhumerus -37.2302 8.02937 -85.3578
rradius 52.4484
rwrist 7.38699
rhand -28.4037 -45.972
rfingers 7.12502
rthumb -1.77585 -75.9443
lclavicle 1.35174e-014 -1.23246e-014
lhumerus -38.3826 -10.757 90.0437
lradius 53.9254
lwrist 19.3328
lhand -40.623 -38.8478
lfingers 7.12502
lthumb -13.5683 -9.30989
rfemur -53.1394 2.96522 33.06
rtibia 74.3792
rfoot -29.812 -13.5513
rtoes -24.1919
lfemur -42.3874 5.54264 -12.6177
ltibia 88.3938
lfoot -7.46088 1.89727
ltoes 2.31595
26
root 0.454218 15.1772 -39.8125 27.5818 4.58738 -5.99894
lowerback -2.72727 -0.543263 8.00707
upperback -3.70955 -0.751224 3.42797
thorax -2.37716 -0.528722 -0.938718
lowerneck -16.1667 -3.39248 -7.84408
upperneck 4.70482 -3.23609 3.46434
head 4.17905 -1.54873 2.06246
rclavicle 1.72943e-014 -2.22639e-014
rhumerus -35.4847 8.95244 -85.1466
rradius 54.7157
rwrist 4.34069
rhand -23.3058 -56.6044
rfingers 7.12502
rthumb 3.14778 -86.5609
lclavicle 1.72943e-014 -2.22639e-014
lhumerus -39.056 -10.0848 89.4826
lradius 53.1394
lwrist 18.6671
lhand -40.2896 -39.5947
lfingers 7.12502
lthumb -13.2469 -10.0356
rfemur -53.7197 4.32443 33.6229
rtibia 74.4857
rfoot -29.7603 -14.0555
rtoes -25.9508
lfemur -46.856 7.11887 -12.3849
ltibia 92.6016
lfoot -5.3031 3.91342
ltoes 0.0533806
